<svg width="36" height="36" viewBox="0 0 36 36" fill="none" xmlns="http://www.w3.org/2000/svg">
<g filter="url(#filter0_d_1_6)">
<circle cx="18" cy="14" r="13" stroke="black" stroke-width="2"/>
<path d="M18.36 10.6L14.76 19H12.42L8.832 10.6H11.4L13.68 16.072L16.008 10.6H18.36ZM25.3077 14.62C25.7877 14.788 26.1637 15.052 26.4357 15.412C26.7077 15.764 26.8437 16.192 26.8437 16.696C26.8437 17.432 26.5477 18 25.9557 18.4C25.3637 18.8 24.5077 19 23.3877 19H18.8517V10.6H23.1477C24.2197 10.6 25.0357 10.8 25.5957 11.2C26.1557 11.592 26.4357 12.124 26.4357 12.796C26.4357 13.196 26.3357 13.556 26.1357 13.876C25.9437 14.188 25.6677 14.436 25.3077 14.62ZM21.2037 12.316V13.936H22.8357C23.6357 13.936 24.0357 13.664 24.0357 13.12C24.0357 12.584 23.6357 12.316 22.8357 12.316H21.2037ZM23.1957 17.284C24.0277 17.284 24.4437 17 24.4437 16.432C24.4437 15.864 24.0277 15.58 23.1957 15.58H21.2037V17.284H23.1957Z" fill="black"/>
</g>
<defs>
<filter id="filter0_d_1_6" x="0" y="0" width="36" height="36" filterUnits="userSpaceOnUse" color-interpolation-filters="sRGB">
<feFlood flood-opacity="0" result="BackgroundImageFix"/>
<feColorMatrix in="SourceAlpha" type="matrix" values="0 0 0 0 0 0 0 0 0 0 0 0 0 0 0 0 0 0 127 0" result="hardAlpha"/>
<feOffset dy="4"/>
<feGaussianBlur stdDeviation="2"/>
<feComposite in2="hardAlpha" operator="out"/>
<feColorMatrix type="matrix" values="0 0 0 0 0 0 0 0 0 0 0 0 0 0 0 0 0 0 0.25 0"/>
<feBlend mode="normal" in2="BackgroundImageFix" result="effect1_dropShadow_1_6"/>
<feBlend mode="normal" in="SourceGraphic" in2="effect1_dropShadow_1_6" result="shape"/>
</filter>
</defs>
</svg>
